<svg id="Layer_7" data-name="Layer 7" xmlns="http://www.w3.org/2000/svg" viewBox="0 0 582.65 569.65"><defs><style>.cls-1{fill:#60bfef;}.cls-1,.cls-11,.cls-12,.cls-13,.cls-14,.cls-18,.cls-2,.cls-20,.cls-3,.cls-4,.cls-5,.cls-6,.cls-7,.cls-8,.cls-9{stroke:#205081;stroke-linecap:round;stroke-width:5px;}.cls-1,.cls-14,.cls-18,.cls-3,.cls-4,.cls-8{stroke-linejoin:round;}.cls-2{fill:#fff;}.cls-11,.cls-12,.cls-13,.cls-2,.cls-20,.cls-5,.cls-6,.cls-7,.cls-9{stroke-miterlimit:10;}.cls-3{fill:#f4bb2c;}.cls-12,.cls-20,.cls-4,.cls-8,.cls-9{fill:none;}.cls-5{fill:#ffe1a3;}.cls-6{fill:#ffe1a4;}.cls-7{fill:#f4d192;}.cls-8{opacity:0.1;}.cls-10,.cls-15,.cls-17{fill:#205081;}.cls-11,.cls-19{fill:#ff4e4a;}.cls-12{opacity:0.5;}.cls-13{fill:#b8e834;}.cls-14{fill:#d7f4ff;}.cls-15{opacity:0.4;}.cls-16{opacity:0.6;}.cls-17{opacity:0.3;}.cls-18{fill:#d18f6b;}.cls-19{opacity:0.2;}.cls-20{stroke-dasharray:16 17;}</style></defs><title>2</title><circle class="cls-1" cx="287.24" cy="280.62" r="226.69"/><rect class="cls-2" x="170.53" y="248.75" width="310.96" height="117.67" rx="10" ry="10"/><path class="cls-3" d="M417.73,260.79c-16.71.11-30.07,14-30.07,30.68v35.65a8.07,8.07,0,0,1-1.25,4.31l-3.48,5.51c-2.6,4.12-.84,12,9,12h9.42v4.33a1.87,1.87,0,0,0,2.57,1.68c4.93-1.56,7.41-3.24,7.41-10.06v0.92h34.89a5.26,5.26,0,0,0,4.46-8c-1.38-2.2-2.43-4.45-2.43-6.18V291.07A30.28,30.28,0,0,0,417.73,260.79Z"/><path class="cls-4" d="M417.73,260.79c-16.71.11-30.07,14-30.07,30.68v35.65a8.07,8.07,0,0,1-1.25,4.31l-3.48,5.51c-2.6,4.12-.84,12,9,12h9.42v4.33a1.87,1.87,0,0,0,2.57,1.68c4.93-1.56,7.41-3.28,7.41-10.09v1h34.89a5.26,5.26,0,0,0,4.46-8c-1.38-2.2-2.43-4.45-2.43-6.18V291.07A30.28,30.28,0,0,0,417.73,260.79Z"/><path class="cls-5" d="M389.46,312.55h2.63V301.74a0.73,0.73,0,0,0-.73-0.73h-1.9a5.77,5.77,0,0,0-5.77,5.77h0A5.77,5.77,0,0,0,389.46,312.55Z"/><path class="cls-6" d="M446.64,312.55H444V301.74a0.73,0.73,0,0,1,.73-0.73h1.9a5.77,5.77,0,0,1,5.77,5.77h0A5.77,5.77,0,0,1,446.64,312.55Z"/><path class="cls-7" d="M423.42,332.93H412.34a1,1,0,0,0-1,1V345.6h13.16V334A1,1,0,0,0,423.42,332.93Z"/><line class="cls-8" x1="415.48" y1="330.99" x2="420.28" y2="330.99"/><line class="cls-9" x1="401.32" y1="350.29" x2="401.32" y2="344.84"/><path class="cls-5" d="M391.91,301V310c0,14.29,11.68,26.4,26,26.49A26.15,26.15,0,0,0,444.2,310.3V301c-5,0-9.84-2-17.84-17.66-0.59-1.15-2.38-.91-3.24.05C419.73,287.22,410.28,301,391.91,301Z"/><circle class="cls-10" cx="408.15" cy="308.58" r="2.93"/><circle class="cls-10" cx="427.86" cy="308.58" r="2.93"/><path class="cls-10" d="M418.05,323.18a7.51,7.51,0,0,0,7.36-6,1.26,1.26,0,0,0-1.25-1.48H411.95a1.26,1.26,0,0,0-1.25,1.48A7.51,7.51,0,0,0,418.05,323.18Z"/><line class="cls-4" x1="247.5" y1="284.63" x2="332.64" y2="284.63"/><line class="cls-4" x1="247.5" y1="315.68" x2="359.39" y2="315.68"/><line class="cls-4" x1="247.5" y1="332.7" x2="307.61" y2="332.7"/><rect class="cls-11" x="204.07" y="273.35" width="23.64" height="23.64" rx="6" ry="6"/><circle class="cls-10" cx="215.89" cy="285.17" r="4.22"/><path class="cls-9" d="M223.39,327.77l-6.73,6.73a0.86,0.86,0,0,1-1.22,0l-7.05-7.05"/><path class="cls-12" d="M223.39,315.47l-6.73,6.73a0.86,0.86,0,0,1-1.22,0l-7.05-7.05"/><path class="cls-1" d="M180.48,248.75h1.87a0,0,0,0,1,0,0V366.42a0,0,0,0,1,0,0h-1.87a9.95,9.95,0,0,1-9.95-9.95V258.7A9.95,9.95,0,0,1,180.48,248.75Z"/><path class="cls-2" d="M287.24,507.31A225.69,225.69,0,0,0,425.86,460h-245a10,10,0,0,0-10,10v5.17A225.61,225.61,0,0,0,287.24,507.31Z"/><line class="cls-4" x1="248.98" y1="495.86" x2="307.61" y2="495.86"/><path class="cls-13" d="M223.19,483.64H211.55a6,6,0,0,0-6,6v2.27a224.89,224.89,0,0,0,23.64,7.68v-9.94A6,6,0,0,0,223.19,483.64Z"/><path class="cls-1" d="M172,469.93v5.92q5.81,3.43,11.82,6.54V460H182A10,10,0,0,0,172,469.93Z"/><path class="cls-14" d="M481.49,212.1V163.72a227.82,227.82,0,0,0-51.62-59.28H180.53a10,10,0,0,0-10,10V212.1a10,10,0,0,0,10,10h291A10,10,0,0,0,481.49,212.1Z"/><path class="cls-15" d="M402.21,345.74L96.78,310.87v0l-4.47-.5h0l-0.86-.1a9.25,9.25,0,0,0-10.27,8.07l-12.51,114a9.19,9.19,0,0,0,8.18,10l310.8,35.48a9.25,9.25,0,0,0,10.27-8.07l12.51-114A9.19,9.19,0,0,0,402.21,345.74Z"/><path class="cls-2" d="M353.45,441L41.78,414.23a9.19,9.19,0,0,1-8.46-9.8l9.32-114.26a9.25,9.25,0,0,1,10-8.36L364.36,308.6a9.19,9.19,0,0,1,8.46,9.8l-9.32,114.26A9.25,9.25,0,0,1,353.45,441Z"/><line class="cls-4" x1="126.12" y1="328.57" x2="208.47" y2="335.83"/><g class="cls-16"><path class="cls-17" d="M269.87,369.44a8.63,8.63,0,0,0-1.4,17.21Z"/><path class="cls-17" d="M341.07,375.36l0.76-9.29a35.91,35.91,0,0,0-32.67-38.8h0a35.78,35.78,0,0,0-38.52,32.89l-0.17,2.07-2.12,26c-1.6,19.66,12.74,34.81,32.23,36.76,19.91,2,37.29-10.26,38.92-30.26l0.18-2.19A8.63,8.63,0,0,0,341.07,375.36Z"/></g><line class="cls-4" x1="123.27" y1="363.52" x2="235.51" y2="373.26"/><line class="cls-4" x1="121.71" y1="382.67" x2="176.08" y2="387.61"/><path class="cls-1" d="M98.3,342.56L80.7,341.1a5.51,5.51,0,0,1-5.07-5.88l1.47-18a5.55,5.55,0,0,1,6-5l17.6,1.46a5.51,5.51,0,0,1,5.07,5.88l-1.47,18A5.55,5.55,0,0,1,98.3,342.56Z"/><path class="cls-9" d="M79.61,366.46l8.14-6.95a1,1,0,0,1,1.36.11l7.23,8.59"/><path class="cls-12" d="M78.48,380.3l8.14-6.95a1,1,0,0,1,1.36.11l7.23,8.59"/><path class="cls-14" d="M46.91,414.65l-4.13-.33a10.29,10.29,0,0,1-9.36-11.12l9.13-111.87a10.25,10.25,0,0,1,11-9.43l4.48,0.37Z"/><line class="cls-8" x1="297.11" y1="412.62" x2="304" y2="413.2"/><line class="cls-8" x1="298.15" y1="411.09" x2="305.05" y2="411.67"/><path id="_Path_" data-name="&lt;Path&gt;" class="cls-18" d="M268.74,362.44a8.63,8.63,0,0,0-1.4,17.21Z"/><path id="_Path_2" data-name="&lt;Path&gt;" class="cls-18" d="M339.94,368.36a8.63,8.63,0,0,1-1.4,17.21Z"/><ellipse id="_Path_3" data-name="&lt;Path&gt;" class="cls-10" cx="287.92" cy="373.29" rx="3.6" ry="3.57" transform="translate(-107.91 629.33) rotate(-85.25)"/><ellipse id="_Path_4" data-name="&lt;Path&gt;" class="cls-10" cx="319.25" cy="375.89" rx="3.6" ry="3.57" transform="translate(-81.77 662.93) rotate(-85.25)"/><path class="cls-19" d="M328.93,386.55a5,5,0,1,1-4.53-5.38A5,5,0,0,1,328.93,386.55Z"/><path class="cls-19" d="M286.59,383a5,5,0,1,1-4.53-5.38A5,5,0,0,1,286.59,383Z"/><path class="cls-18" d="M308,320.27a35.78,35.78,0,0,0-38.52,32.89l-0.17,2.07-2.12,26c-1.6,19.66,12.74,34.81,32.23,36.76,19.91,2,37.29-10.26,38.92-30.26l2.34-28.68A35.91,35.91,0,0,0,308,320.27h0Z"/><path class="cls-9" d="M310.58,381.05c-0.24,2.89-3.78,3.63-8,3.28h0c-4.27-.35-7.64-1.67-7.4-4.56"/><path class="cls-4" d="M288.12,389.3c2.22,2.64,7.47,4.8,13.74,5.32s11.81-.74,14.42-3"/><path class="cls-9" d="M314.49,360.81a16.48,16.48,0,0,1,11.89,1"/><path class="cls-9" d="M283.61,358.24a16.48,16.48,0,0,1,11.89,1"/><ellipse class="cls-10" cx="288.82" cy="367.73" rx="3.61" ry="3.59" transform="translate(-101.56 625.13) rotate(-85.25)"/><ellipse class="cls-10" cx="319.71" cy="370.3" rx="3.61" ry="3.59" transform="translate(-75.78 658.26) rotate(-85.25)"/><path class="cls-17" d="M307.83,322.75h-0.26a32.88,32.88,0,0,0-24.93,8.51l0.21,0.07a33.31,33.31,0,0,0-10.75,22l-0.16,1.92-1.38,17,0.91,0.08a3,3,0,0,0,3.24-2.76l1.11-13.57L276,354.2A29.14,29.14,0,0,1,288,332.84a105.16,105.16,0,0,0,37,2.81A29.24,29.24,0,0,1,333.71,359l-1.28,15.72a3,3,0,0,0,2.75,3.26l1.39,0.12,1.58-19.35A33.3,33.3,0,0,0,307.83,322.75Z"/><path class="cls-17" d="M304.23,411.46l-7.75-.64a2.73,2.73,0,0,1-2.51-2.91l0.15-1.82a2.75,2.75,0,0,1,3-2.48l7.75,0.64a2.73,2.73,0,0,1,2.51,2.91L307.22,409A2.75,2.75,0,0,1,304.23,411.46Z"/><path class="cls-10" d="M98.29,325.73a4.08,4.08,0,0,0-3.71-4.41,4,4,0,0,0-2.91.92,0.78,0.78,0,0,1-1.09-.09,4,4,0,0,0-7.09,2.35s0,0.09,0,.13h0S83,330,90,333.7l0.14,0,0.15,0c7.51-2.44,7.95-7.86,7.95-7.86h0S98.29,325.77,98.29,325.73Z"/><path class="cls-20" d="M123.93,267.33c1.52-46.4,11.62-62.62,40-75.87,0,0,34.51-17.14,67.1-5.77"/></svg>